<svg xmlns="http://www.w3.org/2000/svg" xmlns:xlink="http://www.w3.org/1999/xlink" width="238" height="221" viewBox="0 0 238 221">
  <defs>
    <polygon id="loading-home-a" points="0 12.465 0 37.396 20.956 49.861 41.913 37.396 41.913 12.465 20.956 0"/>
    <polygon id="loading-home-c" points="0 9.663 0 28.988 16.244 38.65 32.489 28.988 32.489 9.663 16.244 0"/>
    <polygon id="loading-home-e" points="0 9.383 0 28.15 15.671 37.533 31.342 28.15 31.342 9.383 15.671 0"/>
    <polygon id="loading-home-g" points="0 9.349 0 28.047 15.717 37.396 31.434 28.047 31.434 9.349 15.717 0"/>
    <polygon id="loading-home-i" points="0 6.032 0 18.095 10.14 24.126 20.28 18.095 20.28 6.032 10.14 0"/>
    <polygon id="loading-home-k" points="0 3.519 0 10.556 5.485 14.075 10.97 10.556 10.97 3.519 5.485 0"/>
    <polygon id="loading-home-m" points="0 3.519 0 10.556 5.485 14.075 10.97 10.556 10.97 3.519 5.485 0"/>
    <polygon id="loading-home-o" points="0 3.519 0 10.556 5.485 14.075 10.97 10.556 10.97 3.519 5.485 0"/>
    <polygon id="loading-home-q" points="0 5.278 0 15.834 8.227 21.112 16.455 15.834 16.455 5.278 8.227 0"/>
    <polygon id="loading-home-s" points="0 3.519 0 10.556 5.485 14.075 10.97 10.556 10.97 3.519 5.485 0"/>
    <polygon id="loading-home-u" points="0 5.278 0 15.834 8.227 21.112 16.455 15.834 16.455 5.278 8.227 0"/>
  </defs>
  <g fill="none" fill-rule="evenodd" transform="translate(1 1)">
    <g opacity=".6" transform="translate(0 83.856)">
      <mask id="loading-home-b" fill="#fff">
        <use xlink:href="#loading-home-a"/>
      </mask>
      <use stroke="#C7D1DA" stroke-linecap="round" stroke-linejoin="round" stroke-width="2" xlink:href="#loading-home-a"/>
      <g stroke="#C7D1DA" stroke-linecap="round" stroke-linejoin="round" stroke-width="2" mask="url(#loading-home-b)">
        <polyline points="20.892 0 20.892 23.246 .06 37.26 20.892 49.746 42.012 37.26 21.036 23.246"/>
      </g>
    </g>
    <g opacity=".6" transform="translate(62.685 146.41)">
      <mask id="loading-home-d" fill="#fff">
        <use xlink:href="#loading-home-c"/>
      </mask>
      <use stroke="#C7D1DA" stroke-linecap="round" stroke-linejoin="round" stroke-width="2" xlink:href="#loading-home-c"/>
      <g stroke="#C7D1DA" stroke-linecap="round" stroke-linejoin="round" stroke-width="2" mask="url(#loading-home-d)">
        <polyline points="16.195 0 16.195 18.019 .046 28.882 16.195 38.561 32.566 28.882 16.306 18.019"/>
      </g>
    </g>
    <g transform="rotate(180 73.655 52.093)">
      <mask id="loading-home-f" fill="#fff">
        <use xlink:href="#loading-home-e"/>
      </mask>
      <use stroke="#C7D1DA" stroke-linecap="round" stroke-linejoin="round" stroke-width="2" xlink:href="#loading-home-e"/>
      <g stroke="#C7D1DA" stroke-linecap="round" stroke-linejoin="round" stroke-width="2" mask="url(#loading-home-f)">
        <polyline points="15.476 0 15.476 17.434 .044 27.945 15.476 37.31 31.12 27.945 15.582 17.434"/>
      </g>
    </g>
    <g opacity=".6" transform="translate(169.172 181.017)">
      <mask id="loading-home-h" fill="#fff">
        <use xlink:href="#loading-home-g"/>
      </mask>
      <use stroke="#C7D1DA" stroke-linecap="round" stroke-linejoin="round" stroke-width="2" xlink:href="#loading-home-g"/>
      <g stroke="#C7D1DA" stroke-linecap="round" stroke-linejoin="round" stroke-width="2" mask="url(#loading-home-h)">
        <polyline points="15.669 0 15.669 17.434 .045 27.945 15.669 37.31 31.509 27.945 15.777 17.434"/>
      </g>
    </g>
    <g transform="matrix(1 0 0 -1 8.668 24.782)">
      <mask id="loading-home-j" fill="#fff">
        <use xlink:href="#loading-home-i"/>
      </mask>
      <use stroke="#C7D1DA" stroke-linecap="round" stroke-linejoin="round" stroke-width="2" xlink:href="#loading-home-i"/>
      <g stroke="#C7D1DA" stroke-linecap="round" stroke-linejoin="round" stroke-width="2" mask="url(#loading-home-j)">
        <polyline points="10.109 0 10.109 11.248 .029 18.029 10.109 24.071 20.328 18.029 10.178 11.248"/>
      </g>
    </g>
    <g opacity=".6" transform="rotate(180 68.953 93.535)">
      <mask id="loading-home-l" fill="#fff">
        <use xlink:href="#loading-home-k"/>
      </mask>
      <use stroke="#C7D1DA" stroke-linecap="round" stroke-linejoin="round" stroke-width="1.5" xlink:href="#loading-home-k"/>
      <g stroke="#C7D1DA" stroke-linecap="round" stroke-linejoin="round" stroke-width="1.5" mask="url(#loading-home-l)">
        <polyline points="5.698 0 5.698 6.538 .016 10.479 5.698 13.991 11.458 10.479 5.737 6.538"/>
      </g>
    </g>
    <g transform="rotate(180 94.81 59.345)">
      <mask id="loading-home-n" fill="#fff">
        <use xlink:href="#loading-home-m"/>
      </mask>
      <use stroke="#C7D1DA" stroke-linecap="round" stroke-linejoin="round" stroke-width="1.5" xlink:href="#loading-home-m"/>
      <g stroke="#C7D1DA" stroke-linecap="round" stroke-linejoin="round" stroke-width="1.5" mask="url(#loading-home-n)">
        <polyline points="5.698 0 5.698 6.538 .016 10.479 5.698 13.991 11.458 10.479 5.737 6.538"/>
      </g>
    </g>
    <g transform="rotate(180 42.806 11.143)">
      <mask id="loading-home-p" fill="#fff">
        <use xlink:href="#loading-home-o"/>
      </mask>
      <use stroke="#C7D1DA" stroke-linecap="round" stroke-linejoin="round" stroke-width="1.5" xlink:href="#loading-home-o"/>
      <g stroke="#C7D1DA" stroke-linecap="round" stroke-linejoin="round" stroke-width="1.5" mask="url(#loading-home-p)">
        <polyline points="5.698 0 5.698 6.538 .016 10.479 5.698 13.991 11.458 10.479 5.737 6.538"/>
      </g>
    </g>
    <g transform="rotate(180 43.734 43.895)">
      <mask id="loading-home-r" fill="#fff">
        <use xlink:href="#loading-home-q"/>
      </mask>
      <use stroke="#C7D1DA" stroke-linecap="round" stroke-linejoin="round" stroke-width="1.5" xlink:href="#loading-home-q"/>
      <g stroke="#C7D1DA" stroke-linecap="round" stroke-linejoin="round" stroke-width="1.5" mask="url(#loading-home-r)">
        <polyline points="8.547 0 8.547 9.807 .024 15.719 8.547 20.987 17.187 15.719 8.605 9.807"/>
      </g>
    </g>
    <path stroke="#D4E0EA" stroke-linecap="round" stroke-linejoin="round" stroke-width="2" d="M19.8115183 39.5505618L19.8115183 67.9775281M79.2460733 35.8426966L79.2460733 51.9101124" opacity=".4"/>
    <g transform="rotate(180 117.099 58.109)">
      <mask id="loading-home-t" fill="#fff">
        <use xlink:href="#loading-home-s"/>
      </mask>
      <use stroke="#C7D1DA" stroke-linecap="round" stroke-linejoin="round" stroke-width="1.5" xlink:href="#loading-home-s"/>
      <g stroke="#C7D1DA" stroke-linecap="round" stroke-linejoin="round" stroke-width="1.5" mask="url(#loading-home-t)">
        <polyline points="5.698 0 5.698 6.538 .016 10.479 5.698 13.991 11.458 10.479 5.737 6.538"/>
      </g>
    </g>
    <g opacity=".6" transform="rotate(180 118.028 90.862)">
      <mask id="loading-home-v" fill="#fff">
        <use xlink:href="#loading-home-u"/>
      </mask>
      <use stroke="#C7D1DA" stroke-linecap="round" stroke-linejoin="round" stroke-width="1.5" xlink:href="#loading-home-u"/>
      <g stroke="#C7D1DA" stroke-linecap="round" stroke-linejoin="round" stroke-width="1.5" mask="url(#loading-home-v)">
        <polyline points="8.547 0 8.547 9.807 .024 15.719 8.547 20.987 17.187 15.719 8.605 9.807"/>
      </g>
    </g>
    <path stroke="#D4E0EA" stroke-linecap="round" stroke-linejoin="round" stroke-width="2" d="M227.832461 129.775281L227.832461 145.842697M131.251309 22.247191L131.251309 50.6741573M184.494764 70.4494382L184.494764 90.2247191M131.870419 119.88764L131.870419 160.674157M228.451571 55.6179775L228.451571 80.3370787M78.6269634 105.05618L78.6269634 128.539326M185.113874 135.955056L185.113874 160.674157" opacity=".4"/>
  </g>
</svg>
