<svg xmlns="http://www.w3.org/2000/svg" width="110" height="126" viewBox="0 0 110 126">
  <g fill="none" fill-rule="evenodd">
    <path fill="#D4E0EA" fill-rule="nonzero" d="M103.041747,59.6513356 L103.041747,39.0432877 C103.041747,35.2513014 99.9643836,32.1739384 96.1723973,32.1739384 L6.86934932,32.1739384 C3.07736301,32.1735616 0,35.2513014 0,39.0432877 L0,97.4336986 C0,101.225685 3.07736301,104.303048 6.86934932,104.303048 L96.1723973,104.303048 C99.9643836,104.303048 103.041747,101.225685 103.041747,97.4336986 L103.041747,76.825274 C106.833733,76.825274 109.911096,73.747911 109.911096,69.9559247 L109.911096,66.5210616 C109.911849,62.7290753 106.837123,59.6513356 103.041747,59.6513356 Z"/>
    <path fill="#F6FBFF" fill-rule="nonzero" d="M19.8693493,0 L88.5639726,0 C92.3559589,0 95.4333219,3.32624034 95.4333219,7.42856271 L95.4333219,59.3999992 C95.4333219,63.5023215 92.3559589,66.8248973 88.5639726,66.8248973 L19.8693493,66.8248973 C16.077363,66.8248973 13,63.4986569 13,59.3999992 L13,7.42856271 C13,3.32624034 16.077363,0 19.8693493,0 Z"/>
    <polygon fill="#B7C4CF" points="81 46 60.747 46 60.747 36.945 58 36.945 58 33.235 60.747 33.235 60.747 29.525 58 29.525 58 25.816 60.747 25.816 60.747 17 66.556 17 66.556 25.816 73.327 25.816 73.327 29.525 66.556 29.525 66.556 33.235 73.327 33.235 73.327 36.945 66.556 36.945 66.556 41.074 81 41.074"/>
    <path fill="#B7C4CF" d="M39.5,46 C32.1964912,46 28,40.1043956 28,31.5 C28,22.8956044 32.1964912,17 39.5,17 C46.8035088,17 51,22.8956044 51,31.5 C51,40.1043956 46.8035088,46 39.5,46 Z M39.5,39.7857143 C42.8894737,39.7857143 44.5438596,36.8777473 44.5438596,31.5 C44.5438596,26.1222527 42.8894737,23.2142857 39.5,23.2142857 C36.1105263,23.2142857 34.4561404,26.1222527 34.4561404,31.5 C34.4561404,36.8777473 36.1105263,39.7857143 39.5,39.7857143 Z"/>
    <path fill="#DDEAF4" fill-rule="nonzero" d="M6.86934932,42.4811644 L82.4333219,52.7819863 C86.2253082,52.7819863 89.3026712,55.8593493 89.3026712,59.6513356 L89.3026712,118.041747 C89.3026712,121.833733 86.2253082,124.911096 82.4333219,124.911096 L6.86934932,114.60726 C3.07736301,114.60726 0,111.529521 0,107.737534 L0.00422668457,38.7789154 C0.00422668457,42.5984017 3.07736301,42.4811644 6.86934932,42.4811644 Z"/>
    <path fill="#BAC8D5" fill-rule="nonzero" d="M73.8465411,76.825274 C76.6903425,76.825274 78.9984589,79.1333904 78.9984589,81.9771918 C78.9984589,84.8209932 76.6903425,87.1291096 73.8465411,87.1291096 C71.0027397,87.1291096 68.6946233,84.8243836 68.6946233,81.9771918 C68.6946233,79.13 71.0027397,76.825274 73.8465411,76.825274 Z"/>
    <path fill="#D4E0EA" fill-rule="nonzero" d="M6.86934932,117.457783 L82.4333219,125.129486 C86.2253082,125.129486 89.3026712,122.838325 89.3026712,120.015111 L89.3026712,109.786079 L6.86934932,102.114376 C3.07736301,102.114376 0,99.8408835 0,97 L0,112.343407 C0,115.168865 3.07736301,117.457783 6.86934932,117.457783 Z"/>
    <path fill="#C3D0DA" fill-rule="nonzero" d="M92.7375342,73.390411 C92.7375342,73.390411 109.911096,69.8078767 109.911096,66.5210616 L109.911096,76.825274 C109.911096,76.825274 106.833733,83.6946233 103.041747,83.6946233 L92.7375342,87.1294863 C88.9421575,87.1294863 85.8681849,84.0521233 85.8681849,80.260137 C85.8681849,76.467774 88.9459247,73.390411 92.7375342,73.390411 Z"/>
    <path fill="#CDD9E3" fill-rule="nonzero" d="M88.6969521,0 L20.0023288,0 C16.2103425,0 13.1329795,2.1814101 13.1329795,4.87178919 L13.1329795,7.30421233 L95.5666781,7.30421233 L95.5666781,4.87178919 C95.5663014,2.1814101 92.4923288,0 88.6969521,0 Z" opacity=".245"/>
  </g>
</svg>
