<svg xmlns="http://www.w3.org/2000/svg" width="125" height="160" viewBox="0 0 125 160">
  <g fill="none" fill-rule="evenodd">
    <path fill="#4075C3" fill-rule="nonzero" d="M64.5597849,7.84809027 C63.41971,6.71730324 61.581644,6.71730324 60.4415691,7.84809027 C44.9551011,23.2109871 23.9436029,30.2429422 3.20764527,28.2569722 C1.48873194,28.0921502 0,29.4357197 0,31.1582448 L0,93.7696656 C0,142.115877 24.0607246,134.106473 60.8836528,158.51364 C61.8619237,159.16212 63.1373993,159.16212 64.1163472,158.51364 C100.939275,134.106473 125,142.115202 125,93.7696656 L125,31.1582448 C125,29.4350442 123.511945,28.0921502 121.792355,28.2569722 C101.050981,30.2436177 80.0381289,23.2028811 64.5597849,7.84809027 Z"/>
    <path fill="#3969AF" fill-rule="nonzero" d="M11.999991 131C4.28283261 124.0184 0 113.681619 0 93.3417442L0 30.9067561C0 29.189085 1.48873083 27.8493015 3.20764286 28.0136591 6.13838336 28.2935577 9.07462803 28.3938224 12 28.3163874L11.999991 131zM112.999991 28.5604042C115.925279 28.6381652 118.861527 28.5376921 121.792355 28.2569722 123.511945 28.0921502 125 29.4350442 125 31.1582448L125 93.7696656C125 114.166734 120.717164 124.53268 113 131.534053L113 28.5604045z"/>
    <path fill="#FFF" d="M69.9297424,83 C70.6104229,81.8233065 71,80.4571486 71,79 L71,64 C71,59.581722 67.418278,56 63,56 C58.581722,56 55,59.581722 55,64 L55,79 C55,80.4571486 55.3895771,81.8233065 56.0702576,83 L53,83 C51.8954305,83 51,82.1045695 51,81 L51,64 C51,57.372583 56.372583,52 63,52 C69.627417,52 75,57.372583 75,64 L75,81 C75,82.1045695 74.1045695,83 73,83 L69.9297424,83 Z"/>
    <rect width="38" height="36" x="44" y="78" fill="#DDEAF4" rx="2"/>
    <path fill="#4075C3" fill-rule="nonzero" d="M62.7161566,90.009449 C60.721836,90.1415415 59.11576,91.7042476 59.0061552,93.6170223 C58.9364953,94.8375946 59.4630855,95.9419442 60.3326172,96.6878237 C60.5800804,96.9001986 60.7271944,97.1989237 60.7271944,97.5167861 L60.7271944,99.7698272 C60.7271944,100.950725 61.6853842,101.956589 62.9173423,101.998597 C64.2101921,102.042472 65.2731152,101.051545 65.2731152,99.8221041 L65.2731152,97.5321891 C65.2731152,97.2068587 65.4216906,96.8997318 65.6740253,96.6822225 C66.4880237,95.9811519 67,94.9645528 67,93.8326644 C67,91.6258322 65.0534184,89.8544854 62.7161566,90.009449 Z"/>
    <path fill="#000" d="M45,78 L50,78 L50,114 L45,114 C43.8954305,114 43,113.104569 43,112 L43,80 C43,78.8954305 43.8954305,78 45,78 Z" opacity=".04"/>
  </g>
</svg>
