<svg xmlns="http://www.w3.org/2000/svg" width="198" height="200" viewBox="0 0 198 200">
  <g fill="none" fill-rule="evenodd">
    <circle cx="99" cy="100.5" r="99" fill="#3D71BB"/>
    <path fill="#D6E3ED" fill-rule="nonzero" d="M135.539227,0 L61.1137298,0 C50.1821654,0 41.289073,8.89348272 41.289073,19.8246568 C41.289073,31.7338915 41.289073,144.400154 41.289073,181.05284 C57.237784,192.848891 76.9660398,199.827233 98.3264781,199.827233 C119.686917,199.827233 139.415172,193.955719 155.363883,182.159668 C155.363883,143.564521 155.363883,38.0159602 155.363883,19.8246568 C155.363883,8.89348272 146.470791,0 135.539227,0 Z"/>
    <path fill="#D4E2ED" fill-rule="nonzero" d="M60.6941961,20.319957 C60.6941961,11.1268834 66.2604244,2.28591529 73.4973145,0 L58.9042969,0.216857118 C49.5309765,0.216857118 41.2869486,10.0229459 41.2869486,21.0066336 C41.2869486,32.9730805 41.3151855,144.075453 41.3151855,180.904219 C47.2278502,186.028999 53.80728,188.964255 60.7824707,192.103516 C60.7824707,139.776095 60.6941961,30.8138337 60.6941961,20.319957 Z"/>
    <path fill="#FCFEFF" fill-rule="nonzero" d="M98.3264781,200.192955 C115.015565,200.192955 130.594194,196.864374 144.266357,189.374756 C144.266357,161.053929 144.38002,36.1839503 144.38002,19.8246568 C144.38002,14.9421594 140.421724,10.9838629 135.539227,10.9838629 L126.263652,10.9838629 C124.437497,10.9838629 122.956355,12.4638334 122.955185,14.2903792 L122.955185,16.3909068 C122.955185,19.2056607 120.652098,21.5087476 117.837344,21.5087476 L78.814832,21.5087476 C76.0000781,21.5087476 73.6969911,19.2056607 73.6969911,16.3909068 L73.6969911,14.2903792 C73.6958203,12.4642236 72.2150693,10.9838629 70.3885235,10.9838629 L61.1129492,10.9838629 C56.2304518,10.9838629 52.2721553,14.9421594 52.2721553,19.8246568 L52.2721553,188.078016 C65.9450995,195.567244 81.6373916,200.192955 98.3264781,200.192955 Z"/>
    <path fill="#BAC8D5" fill-rule="nonzero" d="M110.617414 14.1822695L97.3292934 14.1822695C95.5628519 14.1822695 94.1308868 12.7506947 94.1308868 10.9838629 94.1308868 9.21703111 95.5628519 7.78545632 97.3292934 7.78545632L110.617414 7.78545632C112.383856 7.78545632 113.815821 9.21703111 113.815821 10.9838629 113.815821 12.7506947 112.383465 14.1822695 110.617414 14.1822695zM86.0975979 14.1799278C84.3213992 14.1799278 82.8991913 12.7432792 82.8991913 10.9815212 82.8991913 8.97036937 84.7362749 7.45956621 86.7201066 7.84712176 88.2714996 8.169109 89.2960045 9.50623419 89.2960045 10.9815212 89.2960045 12.7069825 87.9003362 14.1799278 86.0975979 14.1799278z"/>
    <path fill="#2EBA95" d="M83,87.5 C83,96.059875 89.9381875,103 98.5,103 C107.059875,103 114,96.059875 114,87.5 C114,78.940125 107.059875,72 98.5,72 C89.9381875,72 83,78.940125 83,87.5 Z"/>
    <rect width="65" height="4" x="66" y="112" fill="#D4E0EA" rx="2"/>
    <rect width="25" height="4" x="85" y="122" fill="#3D71BB" rx="2"/>
    <path fill="#FFF" d="M97.3405254,91.5170057 C96.696533,92.1609981 95.653957,92.1609981 95.0116116,91.5170057 L92.481759,88.9888001 C91.8394137,88.3448077 91.8394137,87.3022317 92.481759,86.6582393 C93.1257515,86.0158939 94.1683274,86.0158939 94.8106728,86.6582393 L96.1760685,88.023635 L101.716709,82.4829943 C102.359055,81.8390019 103.401631,81.8390019 104.045623,82.4829943 C104.689615,83.1253397 104.689615,84.1679157 104.045623,84.8119081 L97.3405254,91.5170057 Z"/>
  </g>
</svg>
