<svg viewBox="0 0 148 148" version="1.1" xmlns="http://www.w3.org/2000/svg" xmlns:xlink="http://www.w3.org/1999/xlink">
    <defs>
        <rect id="path-1" x="0" y="0" width="147.430692" height="147.496599" rx="2"></rect>
    </defs>
    <g id="Page-1" stroke="none" stroke-width="1" fill="none" fill-rule="evenodd">
        <g id="Group-2">
            <g id="vault-icon">
                <g id="vault-structure">
                    <mask id="mask-2" fill="white">
                        <use xlink:href="#path-1"></use>
                    </mask>
                    <use id="Rectangle-path" fill="#3969AF" fill-rule="nonzero" xlink:href="#path-1"></use>
                    <rect id="Rectangle-path" fill="#4075C3" fill-rule="nonzero" mask="url(#mask-2)" x="1.01503956" y="1" width="145.399994" height="145.5" rx="2"></rect>
                    <path d="M2.09253837,1.79428978 L106.613456,68.2758044 C107.208543,68.5692775 109.91961,75.5825569 109.91961,75.5852697 L111.565321,78.8730528 C111.565321,78.8757656 115.921131,75.2744668 115.326044,75.5705074 L2.09253837,145.679674 C1.49745221,145.975714 1.01503956,145.735608 1.01503956,145.143382 L1.01503956,2.33523061 C1.01503956,1.7430042 1.49745221,1.50081674 2.09253837,1.79428978 Z" id="Rectangle-path" fill="#3969AF" fill-rule="nonzero" opacity="0.280000001" mask="url(#mask-2)"></path>
                    <polygon id="Rectangle-path" fill="#3969AF" fill-rule="nonzero" mask="url(#mask-2)" points="25.2477505 25.3007212 122.02002 25.3317871 121.999084 122.438293 55.4306641 122.437107"></polygon>
                    <path d="M24.9998958,20.8986782 L102.994072,16.1856079 C102.99274,33.8774296 102.99274,45.4873234 102.994072,51.0152893 C102.995117,55.3519428 102.990735,58.7770618 102.994072,61.2994385 C102.996777,63.3439083 102.990135,65.2509983 102.994072,67.0186157 C102.999965,69.6640558 102.995843,72.8718911 102.994072,76.6403809 C102.993308,78.2665991 102.992943,79.9964668 102.994072,81.8318481 C102.995186,83.6423416 102.986312,85.55561 102.994072,87.569397 C103.002947,89.8725646 102.997135,92.8236271 102.994072,96.4222107 C102.992421,98.3622087 102.992233,100.489851 102.994072,102.806854 C102.995755,104.927043 102.97933,107.20706 102.994072,109.642639 C103.004138,111.305612 102.995493,113.483255 102.994072,116.151154 C102.993476,117.271213 102.984088,118.476857 102.994072,119.768433 C102.997771,120.246941 102.987826,120.735209 102.994072,121.237 C103.005276,122.137024 102.997844,123.331887 102.994072,124.805817 C102.992183,125.544103 102.992183,126.348877 102.994072,127.22876 C102.995332,127.815348 102.995332,129.264689 102.994072,131.576782 L24.9998958,126.494675 C25.0094459,114.638399 25.0094459,106.742459 24.9998958,102.806854 C24.9953869,100.948706 25.036042,93.8826297 24.9998958,81.6067505 C24.9892741,77.9994169 25.0271712,72.6722166 24.9998958,65.6185303 C24.9862422,62.0875782 25.0386627,56.7052988 24.9998958,49.505127 C24.9874769,47.1985632 25.0348756,43.9362394 24.9998958,39.7254028 C24.9837286,37.7792104 25.0528653,34.7932884 24.9998958,30.7865601 C24.9899008,30.0305155 25.0017858,29.0341774 24.9998958,27.8075562 C24.9980482,26.608427 24.9980482,24.3054677 24.9998958,20.8986782 Z" id="Rectangle-path" fill="#DDEAF4" fill-rule="nonzero" mask="url(#mask-2)"></path>
                </g>
                <g id="center-circle" x="44.874940" y="54.626048">
                    <ellipse id="Oval" fill="#C7D1D8" fill-rule="nonzero" cx="19.220415" cy="19.2439558" rx="18.270712" ry="18.3090446"></ellipse>
                    <ellipse id="Oval" fill="#FAFAFA" fill-rule="nonzero" cx="19.2553955" cy="19.2790097" rx="16.8696641" ry="16.9050572"></ellipse>
                    <circle id="Oval-2" fill="#3D70B1" cx="19.1250595" cy="19.3739525" r="8"></circle>
                    <rect id="Rectangle-9" fill="#3D70B1" x="18.131728" y="6.95405845" width="2" height="25" rx="1"></rect>
                    <rect id="Rectangle-11" fill="#3D70B1" x="6.62505954" y="18.3739525" width="25" height="2" rx="1"></rect>
                </g>
            </g>
        </g>
    </g>
</svg>
