<svg width="24px" height="24px" viewBox="0 0 24 24" version="1.1" xmlns="http://www.w3.org/2000/svg" xmlns:xlink="http://www.w3.org/1999/xlink"><title>home-icon-inactive</title><desc>Created with Sketch.</desc><defs></defs><g id="home-icon-inactive" stroke="none" stroke-width="1" fill="none" fill-rule="evenodd"><path d="M16.1057604,1.01479739 C13.9751476,1.01564912 12.669459,1.01612842 12.1885768,1.01623533 C11.6983139,1.01634432 10.3113846,1.01645619 8.02766509,1.01657096 C4.71395628,1.01673644 2.02779919,3.70316321 2.02796572,7.01687249 C2.02796661,7.02043897 2.02796661,7.02043897 2.02797032,7.02400544 L2.04031638,16.987888 C2.04440875,20.2906276 4.71692893,22.9690453 8.01965153,22.980418 L16.0840504,23.0081878 C19.3819224,23.0195437 22.0707662,20.3671332 22.1043995,17.0694131 C22.1386608,13.7101216 22.1549496,11.5855591 22.1532611,10.701923 C22.1519195,9.99983872 22.1366281,8.73751182 22.1073838,6.9183549 C22.0547097,3.64173831 19.3828,1.01348737 16.1057604,1.01479739 Z" id="Path-2" stroke="#9EA8B4" stroke-width="2"></path><g id="Icon" transform="translate(2.000000, 1.000000)" fill="#9EA8B4"><path d="M3.01727295,6.51082376 L3.01727295,8.50093098 C3.01727295,10.4339276 4.58427632,12.000931 6.51727295,12.000931 L13.6141678,12.0009284 C15.5202024,12.0009284 17.0758111,10.4757664 17.1134815,8.57010414 C17.1251481,7.97991717 17.1309814,7.63916631 17.1309814,7.54785156 C17.1309814,7.45286053 17.124669,7.08091199 17.1120441,6.43200592 L17.1120396,6.43200601 C17.0749151,4.52384973 15.515928,2.99720987 13.6074128,3.00009637 L6.51197943,3.01082776 C4.58105194,3.01374817 3.01727295,4.57989406 3.01727295,6.51082376 Z" id="Path-4"></path></g></g></svg>
