<svg width="24px" height="24px" viewBox="0 0 24 24" version="1.1" xmlns="http://www.w3.org/2000/svg" xmlns:xlink="http://www.w3.org/1999/xlink"><title>home-icon-inactive</title><desc>Created with Sketch.</desc><defs></defs><g id="home-icon-inactive" stroke="none" stroke-width="1" fill="none" fill-rule="evenodd"><path d="M15.979931,1.00000049 C13.9071554,1.00082804 12.6340872,1.00129445 12.1606112,1.00139974 C11.6703482,1.00150877 10.2834189,1.00162067 7.99969871,1.00173547 C4.68598922,1.00189878 1.99983093,3.68832614 1.99999751,7.00203709 C1.99999839,7.00560245 1.99999839,7.00560245 2.0000021,7.0091677 L2.01239018,17.0088646 C2.01647007,20.3024837 4.67480457,22.9770904 7.96833738,23.0012694 C8.90980448,23.0081811 9.45213047,23.0118887 9.59057206,23.0123656 C9.64107216,23.0125395 10.5786534,23.0089628 10.9647334,23.0078007 C12.2322257,23.0039857 13.6347904,23.0022802 15.2894096,23.0036625 C15.4490354,23.0039795 15.4490354,23.0039795 15.9830524,23.0053369 C19.2967509,23.0138766 21.9899554,20.3345132 21.9984917,17.0208131 C21.99851,17.0120505 21.99851,17.0120505 21.9985113,17.0032878 C21.9973663,13.6827972 21.9959503,11.5809205 21.9942645,10.6984508 C21.9929323,10.0010361 21.9889388,8.76061405 21.9822847,6.97761372 C21.9699534,3.67173266 19.2858375,0.998680622 15.979931,1.00000049 Z" id="Path-2" stroke="#9EA8B4" stroke-width="2"></path><path d="M5,7.51073147 L5,9.50083869 C5,11.4338353 6.56700338,13.0008387 8.5,13.0008387 L15.5968948,13.0008361 C17.5029294,13.0008361 19.0585382,11.4756741 19.0962086,9.57001185 C19.1078752,8.97982488 19.1137085,8.63907402 19.1137085,8.54775927 C19.1137085,8.45276825 19.107396,8.0808197 19.0947712,7.43191364 L19.0947666,7.43191372 C19.0576422,5.52375744 17.4986551,3.99711758 15.5901399,4.00000409 L8.49470648,4.01073547 C6.56377899,4.01365588 5,5.57980177 5,7.51073147 Z" id="Path-4" fill="#9EA8B4"></path></g></svg>
