<svg width="24px" height="24px" viewBox="0 0 24 24" version="1.1" xmlns="http://www.w3.org/2000/svg" xmlns:xlink="http://www.w3.org/1999/xlink"><title>Icon-send-active</title><desc>Created with Sketch.</desc><defs></defs><g id="Icon-send-active" stroke="none" stroke-width="1" fill="none" fill-rule="evenodd"><path d="M21.7945171,4.70796226 L13.1609406,21.9749166 C12.8435566,22.6096772 12.201143,23 11.4973304,23 C11.3527697,23 11.2650495,22.9868421 11.0987972,22.953592 L11.0602754,22.9450942 C10.3136375,22.7648733 9.76761048,22.1613079 9.65509999,21.4210406 L7.19527317,16.6643586 C5.39310033,15.9807212 1.23451964,13.6926697 1.05212848,12.9370579 C0.849138405,12.0961087 1.25216409,11.2214672 2.02231822,10.8363946 L19.2568151,2.22030058 C19.529234,2.06895846 19.8280575,2 20.1337935,2 C20.6433629,2 21.1240486,2.19700009 21.4297901,2.53138865 C22.0224664,3.0944247 22.1689708,3.97899502 21.7945171,4.70796226 Z" id="location-arrow---FontAwesome" stroke="#2475B9" stroke-width="2"></path></g></svg>
