<svg width="16px" height="16px" viewBox="0 0 16 16" version="1.1" xmlns="http://www.w3.org/2000/svg" xmlns:xlink="http://www.w3.org/1999/xlink"><title>Share-icon</title><desc>Created with Sketch.</desc><defs></defs><g id="Mobile" stroke="none" stroke-width="1" fill="none" fill-rule="evenodd"><g id="2.2-Wallet---Tx-detail" transform="translate(-211.000000, -603.000000)" fill="#000000" fill-rule="nonzero"><g id="form" transform="translate(20.000000, 381.000000)"><g id="Transaction-ID" transform="translate(1.000000, 192.000000)"><g id="Share-icon" transform="translate(190.000000, 30.000000)"><path d="M12.8,9.53535354 C11.84,9.53535354 10.96,9.93939394 10.4,10.6666667 L6.32,8.64646465 C6.4,8.4040404 6.4,8.16161616 6.4,8 C6.4,7.83838384 6.4,7.51515152 6.32,7.35353535 L10.4,5.33333333 C10.96,5.97979798 11.84,6.46464646 12.8,6.46464646 C14.56,6.46464646 16,5.01010101 16,3.23232323 C16,1.45454545 14.56,0 12.8,0 C11.04,0 9.6,1.45454545 9.6,3.23232323 C9.6,3.47474747 9.6,3.71717172 9.68,3.87878788 L5.6,5.8989899 C5.04,5.25252525 4.16,4.76767677 3.2,4.76767677 C1.44,4.76767677 0,6.22222222 0,8 C0,9.77777778 1.44,11.2323232 3.2,11.2323232 C4.16,11.2323232 5.04,10.8282828 5.6,10.1010101 L9.68,12.1212121 C9.6,12.3636364 9.6,12.6060606 9.6,12.7676768 C9.6,14.5454545 11.04,16 12.8,16 C14.56,16 16,14.5454545 16,12.7676768 C16,10.989899 14.56,9.53535354 12.8,9.53535354 Z M12.8,1.45454545 C13.68,1.45454545 14.4,2.18181818 14.4,3.07070707 C14.4,3.95959596 13.68,4.68686869 12.8,4.68686869 C11.92,4.68686869 11.2,3.95959596 11.2,3.07070707 C11.2,2.18181818 11.92,1.45454545 12.8,1.45454545 Z M3.2,9.53535354 C2.32,9.53535354 1.6,8.80808081 1.6,7.91919192 C1.6,7.03030303 2.32,6.3030303 3.2,6.3030303 C4.08,6.3030303 4.8,7.03030303 4.8,7.91919192 C4.8,8.80808081 4.08,9.53535354 3.2,9.53535354 Z M12.8,14.3838384 C11.92,14.3838384 11.2,13.6565657 11.2,12.7676768 C11.2,11.8787879 11.92,11.1515152 12.8,11.1515152 C13.68,11.1515152 14.4,11.8787879 14.4,12.7676768 C14.4,13.6565657 13.68,14.3838384 12.8,14.3838384 Z"></path></g></g></g></g></g></svg>
